{"glyphs":{"0":{"ha":975,"x_min":0,"x_max":938,"o":"m 938 458 q 799 114 938 238 q 468 -10 660 -10 q 139 113 278 -10 q 0 458 0 236 q 139 802 0 678 q 469 926 278 926 q 765 834 661 926 q 903 657 868 742 q 938 458 938 572 m 236 458 q 304 290 236 351 q 467 229 372 229 q 626 289 558 229 q 694 458 694 349 q 626 627 694 567 q 464 688 558 688 q 304 628 372 688 q 236 458 236 569 z "},"1":{"ha":833,"x_min":143,"x_max":539,"o":"m 539 0 l 289 0 l 289 660 l 143 660 l 386 910 l 539 910 l 539 0 z "},"2":{"ha":833,"x_min":-8,"x_max":814,"o":"m -8 0 q 253 251 151 150 q 438 442 356 351 q 519 589 519 533 q 506 631 519 606 q 462 663 493 656 q 396 674 431 671 q 308 676 361 676 l 206 675 l 90 675 l 193 779 l 319 907 l 528 907 q 704 853 628 907 q 797 731 781 799 q 814 631 814 664 q 756 456 814 544 q 553 226 697 368 l 581 226 l 617 226 l 640 226 l 661 226 l 679 226 l 696 226 l 733 226 q 763 229 757 226 l 761 0 l -8 0 z "},"3":{"ha":833,"x_min":156,"x_max":897,"o":"m 178 674 l 411 910 l 897 910 l 607 617 q 734 496 689 574 q 779 325 779 418 q 689 89 779 179 q 457 -1 599 -1 l 158 0 l 156 228 l 460 226 q 521 254 494 226 q 547 319 547 282 q 519 384 547 356 q 451 413 490 413 l 357 413 l 281 411 l 546 674 l 178 674 z "},"4":{"ha":833,"x_min":13,"x_max":929,"o":"m 753 560 l 753 0 l 519 0 l 519 560 l 753 560 m 571 229 l 13 229 l 692 913 l 929 913 l 433 417 l 571 417 l 571 229 z "},"5":{"ha":833,"x_min":19,"x_max":938,"o":"m 713 674 l 453 674 l 397 618 l 586 617 q 728 496 676 576 q 779 325 779 415 q 689 89 779 179 q 457 -1 599 -1 l 19 0 l 211 221 l 294 224 l 460 226 q 521 254 494 226 q 547 319 547 282 q 519 384 547 356 q 451 413 490 413 l 271 413 l 93 411 l 546 910 l 938 910 l 713 674 z "},"6":{"ha":833,"x_min":96,"x_max":788,"o":"m 546 667 q 721 550 654 639 q 788 342 788 461 q 686 92 788 192 q 421 -7 585 -7 q 182 96 268 -7 q 96 346 96 199 q 133 494 96 418 q 226 625 169 571 l 324 718 l 433 832 l 511 910 l 783 910 q 653 778 696 825 l 546 667 m 428 465 q 339 429 371 465 q 307 344 307 393 q 342 249 307 289 q 442 208 378 208 q 531 244 499 208 q 563 329 563 281 q 528 425 563 385 q 428 465 493 465 z "},"7":{"ha":833,"x_min":35,"x_max":906,"o":"m 271 910 l 906 910 l 340 340 l 340 0 l 128 0 l 129 332 l 458 668 l 35 668 l 271 910 z "},"8":{"ha":833,"x_min":97,"x_max":785,"o":"m 97 340 q 153 533 97 453 q 244 636 208 613 q 315 660 279 660 q 351 640 335 660 q 390 581 367 619 q 442 535 413 542 q 530 581 475 531 q 611 632 585 632 q 721 543 657 632 q 785 340 785 454 q 676 95 785 197 q 421 -7 567 -7 q 191 97 285 -7 q 97 340 97 201 m 292 514 q 226 588 247 539 q 208 701 208 638 q 287 861 208 799 q 468 924 365 924 q 628 853 561 924 q 694 688 694 783 q 677 578 694 624 q 631 517 660 533 q 576 496 601 500 l 553 493 l 490 499 l 439 506 l 385 501 l 351 499 q 321 501 331 499 l 292 514 m 428 465 q 339 429 371 465 q 307 344 307 393 q 342 249 307 289 q 442 208 378 208 q 531 244 499 208 q 563 329 563 281 q 528 425 563 385 q 428 465 493 465 m 444 774 q 383 748 406 774 q 360 689 360 722 q 385 622 360 651 q 454 593 410 593 q 516 619 493 593 q 539 678 539 644 q 514 744 539 715 q 444 774 489 774 z "},"9":{"ha":833,"x_min":107,"x_max":799,"o":"m 349 243 q 174 360 242 269 q 107 568 107 450 q 207 817 107 717 q 474 917 307 917 q 713 815 628 917 q 799 564 799 713 q 762 417 799 494 q 667 285 725 339 l 571 190 l 461 78 l 383 0 l 111 0 l 242 131 l 349 243 m 467 444 q 556 481 524 444 q 588 565 588 517 q 553 661 588 621 q 453 701 518 701 q 364 665 396 701 q 332 581 332 629 q 367 485 332 525 q 467 444 403 444 z "}," ":{"ha":390,"x_min":0,"x_max":0,"o":""},"!":{"ha":425,"x_min":126,"x_max":325,"o":"m 133 229 l 325 229 l 325 0 l 133 0 l 133 229 m 126 722 l 318 910 l 318 340 l 126 340 l 126 722 z "},"\"":{"ha":361,"x_min":49,"x_max":313,"o":"m 222 906 l 313 906 l 299 668 l 236 668 l 222 906 m 49 906 l 139 906 l 125 668 l 63 668 l 49 906 z "},"#":{"ha":736,"x_min":44,"x_max":708,"o":"m 351 876 l 310 706 l 497 706 l 539 876 l 572 876 l 531 706 l 708 706 l 697 672 l 525 672 l 486 517 l 669 517 l 658 483 l 475 483 l 433 306 l 400 306 l 442 483 l 256 483 l 213 311 l 179 311 l 215 483 l 44 483 l 56 517 l 233 517 l 264 672 l 76 672 l 88 706 l 276 706 l 318 876 l 351 876 m 304 672 l 267 517 l 453 517 l 492 672 l 304 672 z "},"$":{"ha":600,"x_min":18,"x_max":572,"o":"m 236 686 q 372 635 318 686 q 425 508 425 585 q 374 378 425 432 q 247 325 324 325 l 107 325 l 18 325 l 18 471 l 231 469 q 255 480 246 469 q 265 508 264 490 q 224 540 265 540 q 81 596 136 540 q 25 733 25 651 q 81 857 25 806 q 213 908 136 908 l 572 908 l 419 756 l 207 757 q 172 728 172 757 q 191 695 172 704 q 236 686 210 686 m 281 963 l 281 251 l 236 251 l 236 963 l 281 963 z "},"%":{"ha":1146,"x_min":88,"x_max":1096,"o":"m 865 461 q 1034 393 972 461 q 1096 233 1096 325 q 1035 73 1096 142 q 865 4 975 4 q 693 71 757 4 q 629 232 629 138 q 692 392 629 322 q 865 461 756 461 m 1093 907 l 167 0 l 88 0 l 1000 907 l 1093 907 m 372 899 q 541 831 479 899 q 603 671 603 763 q 542 510 603 579 q 372 442 482 442 q 200 508 264 442 q 136 669 136 575 q 199 829 136 760 q 372 899 263 899 m 865 78 q 976 124 935 78 q 1018 232 1018 169 q 978 339 1018 294 q 865 385 940 385 q 750 339 794 385 q 710 231 710 292 q 749 122 710 167 q 865 78 789 78 m 372 515 q 483 561 442 515 q 525 669 525 607 q 485 776 525 732 q 372 822 447 822 q 257 776 301 822 q 217 668 217 729 q 256 560 217 604 q 372 515 296 515 z "},"'":{"ha":181,"x_min":49,"x_max":139,"o":"m 49 906 l 139 906 l 125 668 l 63 668 l 49 906 z "},"(":{"ha":354,"x_min":42,"x_max":253,"o":"m 253 985 q 199 737 217 849 q 181 492 181 625 q 194 180 181 297 q 253 -106 207 63 l 115 -106 q 61 144 72 51 q 46 321 50 238 q 42 492 42 404 q 54 703 42 624 q 81 847 67 782 q 115 985 94 911 l 253 985 z "},")":{"ha":354,"x_min":67,"x_max":278,"o":"m 204 985 q 259 739 240 849 q 278 492 278 629 q 264 181 278 301 q 204 -106 250 60 l 67 -106 q 101 40 86 -32 q 123 176 115 111 q 135 321 131 240 q 139 492 139 401 q 127 713 139 640 q 103 844 115 786 q 67 985 90 903 l 204 985 z "},"*":{"ha":313,"x_min":31,"x_max":261,"o":"m 143 790 l 132 829 l 128 868 q 149 903 128 900 q 168 871 168 903 q 166 850 168 863 q 162 827 164 838 q 158 804 160 817 q 151 790 153 794 l 197 833 q 239 856 221 853 q 250 850 247 853 q 228 813 261 831 l 157 782 q 225 758 196 771 q 254 729 254 744 q 250 717 254 725 q 236 710 246 710 q 194 729 218 710 l 151 772 l 163 731 q 167 712 165 721 q 169 690 168 703 q 150 661 169 661 q 132 671 138 661 l 126 696 q 132 740 126 719 l 143 772 l 100 732 q 58 713 78 713 q 42 721 50 713 q 55 750 31 738 q 138 781 79 763 q 65 810 100 793 q 42 849 31 828 q 56 857 49 857 q 99 835 75 857 l 143 790 z "},"+":{"ha":515,"x_min":97,"x_max":424,"o":"m 97 458 l 424 458 l 424 340 l 97 340 l 97 458 m 199 236 l 199 563 l 317 563 l 317 236 l 199 236 z "},",":{"ha":425,"x_min":42,"x_max":325,"o":"m 133 229 l 325 229 l 319 0 l 325 0 l 133 0 l 133 229 m 160 -153 l 42 -153 l 222 35 l 319 0 l 160 -153 z "},"-":{"ha":515,"x_min":97,"x_max":424,"o":"m 97 458 l 424 458 l 424 340 l 97 340 l 97 458 z "},".":{"ha":425,"x_min":133,"x_max":325,"o":"m 133 229 l 325 229 l 325 0 l 133 0 l 133 229 z "},"/":{"ha":778,"x_min":75,"x_max":701,"o":"m 146 -58 l 75 -17 l 631 946 l 701 904 l 146 -58 z "},":":{"ha":425,"x_min":126,"x_max":325,"o":"m 133 229 l 325 229 l 325 0 l 133 0 l 133 229 m 126 556 l 318 556 l 318 326 l 126 326 l 126 556 z "},";":{"ha":425,"x_min":42,"x_max":325,"o":"m 133 229 l 325 229 l 325 0 l 133 0 l 133 229 m 126 556 l 318 556 l 318 326 l 126 326 l 126 556 m 160 -153 l 42 -153 l 222 35 l 319 0 l 160 -153 z "},"<":{"ha":354,"x_min":21,"x_max":319,"o":"m 21 347 l 278 604 l 319 604 l 63 347 l 319 97 l 278 97 l 21 347 z "},"=":{"ha":403,"x_min":50,"x_max":358,"o":"m 50 304 l 358 304 l 358 235 l 50 235 l 50 304 m 50 485 l 358 485 l 358 415 l 50 415 l 50 485 z "},">":{"ha":347,"x_min":21,"x_max":319,"o":"m 278 347 l 21 604 l 63 604 l 319 347 l 63 97 l 21 97 l 278 347 z "},"?":{"ha":815,"x_min":111,"x_max":743,"o":"m 235 229 l 426 229 l 426 0 l 235 0 l 235 229 m 300 326 l 299 350 q 311 415 299 399 l 332 435 q 351 468 336 453 q 407 485 364 485 q 475 510 447 485 q 503 576 503 536 q 477 644 503 613 q 415 675 451 675 l 111 674 l 349 911 l 421 911 q 651 815 558 911 q 743 571 743 718 q 650 383 743 475 q 431 292 557 292 l 300 326 m 239 488 l 431 488 l 431 292 l 239 292 l 239 488 z "},"A":{"ha":892,"x_min":-10,"x_max":821,"o":"m -10 296 l 604 910 l 821 910 l 821 0 l 571 0 l 571 117 l 176 117 l 400 339 l 571 339 l 571 581 l -10 0 l -10 296 z "},"B":{"ha":843,"x_min":-11,"x_max":783,"o":"m -11 660 l 239 910 l 239 0 l -11 0 l -11 660 m 481 910 q 701 838 619 910 q 783 624 783 767 q 702 420 783 501 q 488 339 621 339 l 303 340 l 303 563 l 482 564 q 525 581 508 564 q 542 622 542 597 q 526 660 542 644 q 481 675 511 675 l 239 674 l 239 910 l 481 910 m 481 564 q 701 494 619 564 q 783 285 783 425 q 702 81 783 163 q 488 0 621 0 l 303 0 l 303 228 l 482 229 q 526 247 508 229 q 543 289 543 264 q 529 325 543 310 q 483 340 515 340 l 303 340 l 303 563 l 481 564 z "},"C":{"ha":686,"x_min":-4,"x_max":833,"o":"m 542 228 l 542 0 l 428 -1 q 120 129 244 -1 q -4 444 -4 260 q 142 772 -4 636 q 488 908 288 908 l 833 910 l 599 674 l 476 674 q 309 608 382 674 q 236 446 236 542 q 295 293 236 358 q 442 228 354 228 l 542 228 z "},"D":{"ha":906,"x_min":-3,"x_max":843,"o":"m 294 226 l 294 0 l 411 0 q 719 130 594 0 q 843 444 843 260 q 698 772 843 635 q 351 908 553 908 l 249 910 l 247 672 l 369 674 q 534 606 465 674 q 603 446 603 539 q 544 293 603 358 q 397 228 485 228 l 294 226 m -3 660 l 247 910 l 247 0 l -3 0 l -3 660 z "},"E":{"ha":653,"x_min":0,"x_max":810,"o":"m 0 660 l 250 910 l 250 675 l 250 0 l 0 0 l 0 660 m 181 228 l 576 228 l 576 0 l 250 0 l 181 228 m 167 563 l 576 563 l 576 339 l 250 339 l 167 563 m 188 674 l 250 910 l 810 910 l 574 674 l 188 674 z "},"F":{"ha":643,"x_min":0,"x_max":810,"o":"m 0 660 l 250 910 l 250 675 l 250 458 l 250 0 l 0 0 l 0 660 m 250 563 l 576 563 l 576 339 l 250 339 l 250 563 m 250 674 l 250 910 l 810 910 l 574 674 l 250 674 z "},"G":{"ha":824,"x_min":-4,"x_max":1000,"o":"m 765 674 l 476 674 q 309 608 382 674 q 236 446 236 542 q 295 293 236 358 q 442 228 354 228 l 542 228 l 542 0 l 428 -1 q 120 129 244 -1 q -4 444 -4 260 q 142 772 -4 636 q 488 908 288 908 l 1000 910 l 765 674 m 542 0 l 542 563 l 767 563 l 767 0 l 542 0 z "},"H":{"ha":911,"x_min":0,"x_max":840,"o":"m 0 660 l 250 910 l 250 0 l 0 0 l 0 660 m 576 910 l 840 910 l 840 0 l 576 0 l 576 910 m 208 563 l 632 563 l 646 340 l 194 340 l 208 563 z "},"I":{"ha":311,"x_min":0,"x_max":250,"o":"m 0 660 l 250 910 l 250 0 l 0 0 l 0 660 z "},"J":{"ha":332,"x_min":-81,"x_max":269,"o":"m 19 0 l 19 660 l 269 910 l 269 0 q 267 -49 269 -28 q 252 -119 260 -78 q 208 -199 244 -160 q 124 -257 171 -239 q 21 -275 78 -275 l -81 -275 l -81 -56 l -22 -56 q 10 -37 1 -56 l 19 0 z "},"K":{"ha":774,"x_min":0,"x_max":931,"o":"m 0 660 l 250 910 l 250 0 l 0 0 l 0 660 m 215 514 l 613 910 l 931 910 l 524 501 l 708 317 l 708 0 l 371 336 l 215 182 l 215 514 z "},"L":{"ha":643,"x_min":0,"x_max":576,"o":"m 0 660 l 250 910 l 250 675 l 250 0 l 0 0 l 0 660 m 250 228 l 576 228 l 576 0 l 250 0 l 250 228 z "},"M":{"ha":1097,"x_min":0,"x_max":1025,"o":"m 0 288 l 629 913 l 629 521 l 1025 913 l 1025 0 l 788 0 l 788 396 l 388 -4 l 388 383 l 0 0 l 0 288 z "},"N":{"ha":913,"x_min":0,"x_max":842,"o":"m 0 660 l 250 910 l 250 0 l 0 0 l 0 660 m 842 0 l 208 629 l 250 913 l 575 583 l 575 913 l 842 913 l 842 0 z "},"O":{"ha":975,"x_min":0,"x_max":938,"o":"m 938 458 q 799 114 938 238 q 468 -10 660 -10 q 139 113 278 -10 q 0 458 0 236 q 139 802 0 678 q 469 926 278 926 q 765 834 661 926 q 903 657 868 742 q 938 458 938 572 m 236 458 q 304 290 236 351 q 467 229 372 229 q 626 289 558 229 q 694 458 694 349 q 626 627 694 567 q 464 688 558 688 q 304 628 372 688 q 236 458 236 569 z "},"P":{"ha":843,"x_min":-11,"x_max":821,"o":"m -11 660 l 239 910 l 239 0 l -11 0 l -11 660 m 481 910 q 722 822 624 910 q 821 561 821 735 q 722 328 821 425 q 488 231 622 231 l 303 232 l 303 454 l 415 456 q 500 485 471 456 q 529 558 529 514 q 501 643 529 611 q 414 675 476 675 l 239 674 l 239 910 l 481 910 z "},"Q":{"ha":974,"x_min":0,"x_max":938,"o":"m 592 267 q 694 458 694 333 q 626 627 694 567 q 464 688 558 688 q 304 628 372 688 q 236 458 236 569 q 303 295 236 361 q 476 229 371 229 l 931 229 l 708 0 l 497 -8 q 140 126 281 -8 q 0 458 0 260 q 139 802 0 678 q 469 926 278 926 q 765 834 661 926 q 903 657 868 742 q 938 458 938 572 q 900 267 938 367 l 854 265 l 801 265 l 765 265 l 735 265 l 708 265 l 685 265 l 665 265 l 649 265 l 610 265 l 592 267 z "},"R":{"ha":826,"x_min":-11,"x_max":783,"o":"m -11 660 l 239 910 l 239 0 l -11 0 l -11 660 m 481 910 q 701 838 619 910 q 783 624 783 767 q 702 420 783 501 q 488 339 621 339 q 429 350 429 339 l 435 356 l 450 363 l 301 476 l 414 478 q 499 507 469 478 q 528 581 528 536 q 502 650 528 625 q 414 675 476 675 l 239 674 l 239 910 l 481 910 m 776 -7 l 293 476 l 589 476 l 776 285 l 776 -7 z "},"S":{"ha":699,"x_min":0,"x_max":867,"o":"m 342 563 q 554 484 471 563 q 638 288 638 406 q 556 86 638 172 q 358 0 474 0 l 142 0 l 0 0 l 0 228 l 333 226 q 372 244 357 226 q 388 285 388 261 q 322 336 388 336 q 100 422 188 336 q 13 638 13 508 q 99 831 13 753 q 304 910 186 910 l 867 910 l 629 672 l 296 674 q 259 665 274 674 q 242 633 244 656 q 271 578 242 593 q 342 563 300 563 z "},"T":{"ha":653,"x_min":14,"x_max":810,"o":"m 243 676 l 493 910 l 493 675 l 493 0 l 243 0 l 243 676 m 14 674 l 250 910 l 810 910 l 574 674 l 14 674 z "},"U":{"ha":803,"x_min":0,"x_max":733,"o":"m 733 342 q 624 90 733 194 q 364 -14 514 -14 q 108 90 215 -14 q 0 342 0 193 l 0 660 l 250 910 l 250 339 q 285 260 250 293 q 369 228 321 228 q 451 260 415 228 q 486 339 486 292 l 486 557 l 486 757 l 486 911 l 733 911 l 733 788 l 733 342 z "},"V":{"ha":746,"x_min":3,"x_max":918,"o":"m 3 674 l 244 914 l 244 526 l 632 910 l 918 910 l 3 -3 l 3 674 z "},"W":{"ha":1136,"x_min":3,"x_max":1311,"o":"m 1311 911 l 399 -3 l 399 389 l 3 -3 l 3 668 l 240 910 l 240 514 l 640 914 l 640 526 l 1032 914 l 1311 911 z "},"X":{"ha":746,"x_min":0,"x_max":921,"o":"m 0 -8 l 0 317 l 594 910 l 921 910 l 0 -8 m 8 683 l 236 910 l 696 450 l 696 -7 l 8 683 z "},"Y":{"ha":774,"x_min":0,"x_max":931,"o":"m 0 660 l 250 910 l 250 0 l 0 0 l 0 660 m 215 182 l 215 514 l 613 910 l 931 910 l 215 182 z "},"Z":{"ha":807,"x_min":1,"x_max":915,"o":"m 239 910 l 915 910 l 232 226 l 756 226 l 756 0 l 1 0 l 1 297 l 372 675 l 6 675 l 239 910 z "},"[":{"ha":396,"x_min":0,"x_max":278,"o":"m 0 1049 l 278 1049 l 278 965 l 201 965 l 201 -35 l 278 -35 l 278 -111 l 0 -111 l 0 1049 z "},"\\":{"ha":778,"x_min":125,"x_max":751,"o":"m 125 911 l 196 953 l 751 -10 l 681 -51 l 125 911 z "},"]":{"ha":396,"x_min":118,"x_max":396,"o":"m 396 -111 l 118 -111 l 118 -35 l 194 -35 l 194 965 l 118 965 l 118 1049 l 396 1049 l 396 -111 z "},"^":{"ha":1389,"x_min":153,"x_max":333,"o":"m 153 826 l 243 910 l 333 819 l 292 778 l 243 826 l 174 771 l 153 826 z "},"_":{"ha":1389,"x_min":0,"x_max":1389,"o":"m 1389 0 l 0 -3 l 1389 0 z "},"`":{"ha":1389,"x_min":188,"x_max":382,"o":"m 257 1097 l 382 924 l 319 917 l 188 1056 l 257 1097 z "},"a":{"ha":713,"x_min":-7,"x_max":656,"o":"m -7 236 l 483 728 l 656 728 l 656 0 l 456 0 l 456 93 l 140 93 l 319 271 l 456 271 l 456 464 l -7 0 l -7 236 z "},"b":{"ha":674,"x_min":-8,"x_max":626,"o":"m -8 528 l 190 728 l 190 0 l -8 0 l -8 528 m 383 728 q 560 670 493 728 q 626 499 626 613 q 561 336 626 401 q 389 271 496 271 l 242 272 l 242 450 l 385 450 q 419 463 406 450 q 432 496 432 476 q 419 525 432 511 q 383 539 407 539 l 190 539 l 190 728 l 383 728 m 383 450 q 561 395 496 450 q 626 228 626 340 q 561 65 626 131 q 389 0 496 0 l 242 0 l 242 182 l 385 183 q 418 197 406 183 q 433 232 431 211 q 386 272 433 272 l 242 272 l 242 450 l 383 450 z "},"c":{"ha":549,"x_min":-3,"x_max":667,"o":"m 433 182 l 433 0 l 342 0 q 97 105 196 0 q -3 356 -3 210 q 112 618 -3 510 q 389 726 226 726 l 667 728 l 478 539 l 381 539 q 246 485 303 539 q 189 356 189 432 q 237 234 189 286 q 353 182 285 182 l 433 182 z "},"d":{"ha":724,"x_min":-1,"x_max":674,"o":"m 317 182 q 433 233 383 182 q 482 356 482 285 q 427 485 482 431 q 294 539 372 539 l 197 538 l 199 728 l 281 726 q 557 619 440 726 q 674 356 674 511 q 575 104 674 208 q 328 0 476 0 l 235 0 l 235 181 l 317 182 m -1 528 l 197 728 l 197 0 l -1 0 l -1 528 z "},"e":{"ha":522,"x_min":0,"x_max":647,"o":"m 0 528 l 200 728 l 200 539 l 200 0 l 0 0 l 0 528 m 144 182 l 461 182 l 461 0 l 200 0 l 144 182 m 133 450 l 461 450 l 461 271 l 200 271 l 133 450 m 150 539 l 200 728 l 647 728 l 458 539 l 150 539 z "},"f":{"ha":514,"x_min":0,"x_max":647,"o":"m 0 528 l 200 728 l 200 539 l 200 367 l 200 0 l 0 0 l 0 528 m 200 450 l 461 450 l 461 271 l 200 271 l 200 450 m 200 539 l 200 728 l 647 728 l 458 539 l 200 539 z "},"g":{"ha":658,"x_min":-3,"x_max":800,"o":"m 611 539 l 381 539 q 246 485 303 539 q 189 356 189 432 q 237 234 189 286 q 353 182 285 182 l 433 182 l 433 0 l 342 0 q 97 105 196 0 q -3 356 -3 210 q 119 618 -3 510 q 406 726 240 726 l 800 728 l 611 539 m 433 0 l 433 450 l 613 450 l 613 0 l 433 0 z "},"h":{"ha":721,"x_min":0,"x_max":672,"o":"m 0 528 l 200 728 l 200 0 l 0 0 l 0 528 m 461 728 l 672 728 l 672 0 l 461 0 l 461 728 m 167 450 l 506 450 l 517 272 l 156 272 l 167 450 z "},"i":{"ha":263,"x_min":0,"x_max":200,"o":"m 0 528 l 200 728 l 200 0 l 0 0 l 0 528 z "},"j":{"ha":265,"x_min":-64,"x_max":215,"o":"m 15 0 l 15 528 l 215 728 l 215 0 q 203 -87 215 -46 q 165 -158 190 -129 q 113 -199 140 -186 q 64 -215 85 -211 q 17 -219 43 -219 l -64 -219 l -64 -44 l -17 -44 q 7 -29 1 -44 l 15 0 z "},"k":{"ha":618,"x_min":0,"x_max":744,"o":"m 0 528 l 200 728 l 200 0 l 0 0 l 0 528 m 172 411 l 489 728 l 744 728 l 418 400 l 567 253 l 567 0 l 296 268 l 172 144 l 172 411 z "},"l":{"ha":514,"x_min":0,"x_max":461,"o":"m 0 528 l 200 728 l 200 539 l 200 0 l 0 0 l 0 528 m 200 182 l 461 182 l 461 0 l 200 0 l 200 182 z "},"m":{"ha":878,"x_min":0,"x_max":819,"o":"m 0 229 l 503 729 l 503 417 l 819 729 l 819 0 l 629 0 l 629 317 l 310 -3 l 310 306 l 0 0 l 0 229 z "},"n":{"ha":729,"x_min":0,"x_max":672,"o":"m 0 528 l 200 728 l 200 0 l 0 0 l 0 528 m 672 0 l 192 478 l 200 729 l 460 467 l 460 729 l 672 729 l 672 0 z "},"o":{"ha":779,"x_min":0,"x_max":750,"o":"m 750 367 q 638 92 750 193 q 375 -8 526 -8 q 110 90 221 -8 q 0 367 0 189 q 112 642 0 543 q 375 742 224 742 q 640 643 531 742 q 750 367 750 544 m 189 367 q 244 233 189 282 q 372 183 299 183 q 502 231 449 183 q 556 367 556 279 q 501 501 556 451 q 372 550 446 550 q 242 503 296 550 q 189 367 189 456 z "},"p":{"ha":674,"x_min":-8,"x_max":656,"o":"m -8 528 l 190 728 l 190 0 l -8 0 l -8 528 m 383 728 q 578 658 500 728 q 656 449 656 589 q 576 264 656 344 q 389 183 497 183 l 242 185 l 242 363 l 332 364 q 399 387 375 364 q 422 446 422 410 q 401 513 422 488 q 331 539 379 539 l 190 539 l 190 728 l 383 728 z "},"q":{"ha":801,"x_min":0,"x_max":750,"o":"m 472 213 q 556 367 556 267 q 501 501 556 451 q 372 550 446 550 q 242 503 296 550 q 189 367 189 456 q 243 237 189 290 q 381 183 297 183 l 744 183 l 567 0 l 397 -6 q 110 101 221 -6 q 0 367 0 207 q 112 642 0 543 q 375 742 224 742 q 640 643 531 742 q 750 367 750 544 q 719 213 750 294 l 472 213 z "},"r":{"ha":661,"x_min":-8,"x_max":626,"o":"m -8 528 l 190 728 l 190 0 l -8 0 l -8 528 m 383 728 q 560 670 493 728 q 626 499 626 613 q 561 336 626 401 q 389 271 496 271 l 374 271 q 356 273 365 271 q 345 276 347 275 q 343 279 343 278 l 349 283 l 360 289 l 240 381 l 331 382 q 399 403 375 382 q 422 464 422 425 q 401 519 422 499 q 331 539 379 539 l 190 539 l 190 728 l 383 728 m 621 -6 l 233 381 l 471 381 l 621 228 l 621 -6 z "},"s":{"ha":558,"x_min":0,"x_max":693,"o":"m 272 450 q 444 388 378 450 q 510 229 510 325 q 444 69 510 138 q 286 0 379 0 l 113 0 l 0 0 l 0 182 l 267 181 q 297 195 285 181 q 310 229 310 210 q 257 268 310 268 q 80 339 150 268 q 10 510 10 410 q 81 663 10 597 q 243 728 151 728 l 693 728 l 503 538 l 236 539 q 206 530 219 539 q 193 503 193 521 q 214 461 193 472 q 272 450 240 450 z "},"t":{"ha":522,"x_min":11,"x_max":647,"o":"m 194 540 l 394 728 l 394 539 l 394 0 l 194 0 l 194 540 m 11 539 l 200 728 l 647 728 l 458 539 l 11 539 z "},"u":{"ha":642,"x_min":0,"x_max":586,"o":"m 586 272 q 499 73 586 157 q 290 -11 413 -11 q 85 72 171 -11 q 0 272 0 156 l 0 528 l 200 728 l 200 271 q 228 208 200 233 q 294 182 257 182 q 360 207 331 182 q 389 271 389 232 l 389 728 l 586 728 l 586 629 l 586 272 z "},"v":{"ha":617,"x_min":1,"x_max":733,"o":"m 1 539 l 194 731 l 194 421 l 506 728 l 733 728 l 1 -1 l 1 539 z "},"w":{"ha":908,"x_min":1,"x_max":1049,"o":"m 1049 728 l 318 -1 l 318 311 l 1 -1 l 1 533 l 192 728 l 192 411 l 511 731 l 511 421 l 822 728 l 1049 728 z "},"x":{"ha":596,"x_min":0,"x_max":736,"o":"m 0 -6 l 0 253 l 475 728 l 736 728 l 0 -6 m 6 546 l 189 728 l 556 360 l 556 -6 l 6 546 z "},"y":{"ha":618,"x_min":0,"x_max":744,"o":"m 0 528 l 200 728 l 200 0 l 0 0 l 0 528 m 172 144 l 172 411 l 489 728 l 744 728 l 172 144 z "},"z":{"ha":644,"x_min":0,"x_max":732,"o":"m 190 728 l 732 728 l 185 181 l 604 181 l 604 0 l 0 0 l 0 238 l 297 539 l 4 539 l 190 728 z "},"|":{"ha":250,"x_min":90,"x_max":132,"o":"m 132 1118 l 132 -278 l 90 -278 l 90 1118 l 132 1118 z "},"®":{"ha":800,"x_min":53,"x_max":768,"o":"m 411 254 q 172 332 244 254 q 76 469 100 410 q 53 601 53 529 q 147 847 53 743 q 411 950 242 950 q 674 847 581 950 q 768 601 768 744 q 675 357 768 460 q 411 254 582 254 m 411 922 q 169 827 256 922 q 82 601 82 732 q 169 376 82 471 q 411 282 256 282 q 654 378 568 282 q 740 603 740 474 q 653 827 740 732 q 411 922 567 922 m 451 792 q 510 768 479 786 q 540 688 540 750 q 511 613 540 629 q 447 590 482 597 l 381 590 l 544 417 l 510 417 l 346 590 l 319 590 l 319 417 l 292 417 l 292 792 l 451 792 m 451 618 q 492 635 472 622 q 513 688 513 649 q 498 739 513 728 q 477 753 483 750 q 450 764 471 756 l 321 764 l 321 618 l 451 618 z "},"©":{"ha":800,"x_min":53,"x_max":768,"o":"m 411 254 q 172 332 244 254 q 76 469 100 410 q 53 601 53 529 q 147 847 53 743 q 411 950 242 950 q 674 847 581 950 q 768 601 768 744 q 675 357 768 460 q 411 254 582 254 m 411 922 q 169 827 256 922 q 82 601 82 732 q 169 376 82 471 q 411 282 256 282 q 654 378 568 282 q 740 603 740 474 q 653 827 740 732 q 411 922 567 922 m 411 733 q 301 692 340 733 q 263 597 263 651 q 301 500 263 543 q 411 460 342 460 q 494 481 468 460 q 540 525 519 501 l 540 483 q 497 449 525 465 q 411 433 469 433 q 281 483 328 433 q 235 597 235 532 q 281 712 235 663 q 411 761 326 761 q 491 745 463 761 q 540 710 519 729 l 540 676 q 494 715 524 696 q 411 733 464 733 z "},"™":{"ha":431,"x_min":33,"x_max":410,"o":"m 33 961 l 182 961 l 182 953 l 113 953 l 113 743 l 103 743 l 103 953 l 33 953 l 33 961 m 175 744 l 224 964 l 293 763 l 364 964 l 410 744 l 400 744 l 361 932 l 293 733 l 225 932 l 185 744 l 175 744 z "},"≠":{"ha":763,"x_min":63,"x_max":700,"o":"m 574 467 l 700 467 l 700 378 l 493 378 l 392 278 l 700 278 l 700 189 l 310 189 l 146 25 l 86 86 l 189 189 l 63 189 l 63 278 l 271 278 l 372 378 l 63 378 l 63 467 l 453 467 l 617 631 l 678 569 l 574 467 z "},"∞":{"ha":990,"x_min":74,"x_max":915,"o":"m 532 376 q 612 281 563 314 q 719 247 661 247 q 837 296 792 247 q 882 421 882 344 q 840 544 882 496 q 729 592 797 592 q 631 542 681 592 q 532 376 586 493 m 458 454 q 376 551 422 518 q 271 583 331 583 q 153 535 199 583 q 108 410 108 486 q 149 286 108 335 q 256 239 192 239 q 354 283 310 239 q 458 454 399 326 m 508 331 q 422 213 463 246 q 353 169 382 179 q 290 158 325 158 q 136 231 199 158 q 74 414 74 304 q 131 601 74 529 q 276 672 188 672 q 390 631 340 672 q 482 500 440 590 q 565 618 524 586 q 635 661 606 650 q 700 672 665 672 q 835 617 788 672 q 899 517 883 563 q 915 417 915 472 q 860 229 915 300 q 714 158 804 158 q 599 200 651 158 q 508 331 547 242 z "},"±":{"ha":763,"x_min":61,"x_max":703,"o":"m 703 26 l 61 26 l 61 121 l 703 121 l 703 26 m 429 460 l 703 460 l 703 365 l 429 365 l 429 196 l 335 196 l 335 365 l 61 365 l 61 460 l 335 460 l 335 629 l 429 629 l 429 460 z "},"≤":{"ha":763,"x_min":60,"x_max":703,"o":"m 703 25 l 60 25 l 60 119 l 703 119 l 703 25 m 225 389 l 703 240 l 703 143 l 61 344 l 61 435 l 703 636 l 703 539 l 225 389 z "},"≥":{"ha":763,"x_min":60,"x_max":703,"o":"m 703 25 l 60 25 l 60 119 l 703 119 l 703 25 m 703 344 l 60 143 l 60 240 l 538 389 l 60 539 l 60 636 l 703 435 l 703 344 z "},"µ":{"ha":800,"x_min":101,"x_max":775,"o":"m 231 213 q 250 81 231 114 q 319 47 269 47 q 451 160 397 47 q 504 443 504 274 l 504 624 l 632 624 l 632 168 q 644 76 632 106 q 685 47 657 47 q 728 76 713 47 q 744 161 744 104 l 744 181 l 774 181 l 775 168 l 775 150 q 742 32 775 76 q 650 -12 710 -12 q 546 47 583 -12 q 508 226 508 107 q 423 45 476 103 q 289 -12 369 -12 q 188 24 229 -12 q 132 131 150 61 l 131 92 q 174 -103 131 0 q 219 -232 217 -207 q 204 -275 219 -260 q 161 -290 189 -290 q 115 -266 129 -290 q 101 -193 101 -242 l 104 -112 l 107 11 l 106 151 l 103 283 l 103 624 l 231 624 l 231 213 z "},"∂":{"ha":686,"x_min":86,"x_max":606,"o":"m 356 485 q 236 401 286 485 q 189 178 189 315 q 219 56 189 100 q 306 13 249 13 q 426 99 379 13 q 474 311 474 186 q 443 438 474 390 q 356 485 413 485 m 497 399 l 506 438 l 510 481 l 514 604 q 492 779 514 722 q 426 836 471 836 q 357 788 401 836 q 279 739 313 739 q 245 749 258 739 q 228 783 232 758 q 269 851 228 821 q 369 882 311 882 q 522 808 475 882 q 588 666 569 735 q 606 510 606 597 q 517 133 606 283 q 297 -18 428 -18 q 146 53 206 -18 q 86 243 86 124 q 160 442 86 356 q 333 528 233 528 q 433 498 394 528 q 497 399 472 468 z "},"Σ":{"ha":990,"x_min":50,"x_max":918,"o":"m 858 893 l 879 714 l 818 714 q 700 914 774 860 q 465 968 626 968 l 282 968 l 719 369 l 242 -178 l 501 -178 q 647 -167 590 -178 q 756 -124 703 -157 q 856 28 810 -92 l 918 28 l 876 -153 l 874 -162 q 719 -300 842 -300 l 50 -300 l 590 319 l 69 1033 l 708 1033 q 822 1013 797 1033 q 858 893 844 997 z "},"∏":{"ha":1143,"x_min":42,"x_max":1107,"o":"m 164 -244 l 164 978 l 42 978 l 42 1033 l 1107 1033 l 1107 978 l 985 978 l 985 -244 l 1107 -244 l 1107 -300 l 740 -300 l 740 -244 l 857 -244 l 857 978 l 292 978 l 292 -244 l 408 -244 l 408 -300 l 42 -300 l 42 -244 l 164 -244 z "},"π":{"ha":763,"x_min":24,"x_max":731,"o":"m 561 518 l 560 485 l 556 276 l 556 221 q 567 74 556 101 q 610 46 579 46 q 668 88 646 46 q 690 210 690 129 l 725 210 l 725 203 q 689 39 725 92 q 578 -14 653 -14 q 476 27 501 -14 q 443 125 451 68 q 435 269 435 182 l 436 378 l 440 522 l 371 524 l 264 526 q 232 92 264 197 q 121 -14 200 -14 q 49 26 74 -14 q 24 146 24 67 l 24 172 l 57 172 q 69 118 57 136 q 108 100 82 100 q 183 165 167 100 q 208 318 200 231 q 217 526 217 406 l 186 526 q 103 508 132 526 q 65 453 74 490 l 33 453 q 47 533 33 500 q 97 594 60 565 q 254 624 135 624 l 396 619 l 607 615 q 674 624 654 615 q 699 654 694 633 l 731 656 q 698 551 731 585 q 594 517 665 517 l 575 517 l 561 518 z "},"∫":{"ha":381,"x_min":-125,"x_max":506,"o":"m 393 1051 q 474 1026 443 1051 q 506 958 506 1000 q 488 911 506 931 q 438 892 471 892 q 377 935 399 892 q 336 981 356 979 q 257 550 257 981 l 253 414 l 253 393 q 252 340 253 365 q 246 247 251 314 q 241 169 246 211 q 225 48 236 126 q 185 -96 214 -31 q 101 -206 156 -161 q -12 -251 46 -251 q -93 -226 -61 -251 q -125 -158 -125 -200 q -108 -111 -125 -129 q -57 -93 -90 -93 q 3 -135 -18 -93 q 46 -181 24 -176 q 125 269 125 -181 l 128 386 q 131 480 128 415 q 133 547 133 544 q 138 622 133 579 q 153 747 143 665 q 196 894 164 828 q 278 1008 225 965 q 393 1051 332 1051 z "},"Ω":{"ha":1067,"x_min":69,"x_max":997,"o":"m 824 125 q 918 151 890 125 q 946 244 946 176 l 978 244 l 978 0 l 600 0 l 600 250 q 769 357 706 271 q 833 567 833 443 q 751 801 833 714 q 533 888 669 888 q 316 801 399 888 q 233 567 233 714 q 294 358 233 440 q 467 250 356 275 l 467 0 l 89 0 l 89 244 l 121 244 q 147 151 121 178 q 243 125 174 125 l 414 125 l 414 207 q 160 331 250 236 q 69 567 69 425 q 199 835 69 733 q 533 938 328 938 q 869 836 740 938 q 997 567 997 735 q 909 334 997 428 q 653 207 821 240 l 653 125 l 824 125 z "},"√":{"ha":763,"x_min":-19,"x_max":825,"o":"m 825 1061 l 746 1061 l 343 -28 l 299 -28 l 82 571 l -3 540 l -19 594 l 172 661 l 346 181 l 696 1126 l 825 1126 l 825 1061 z "},"≈":{"ha":763,"x_min":21,"x_max":742,"o":"m 21 139 l 21 246 q 81 280 53 265 q 153 310 110 294 q 244 326 196 326 q 403 293 304 326 q 542 260 503 260 q 624 281 578 260 q 742 353 671 301 l 742 244 q 685 210 711 225 q 622 182 658 196 q 535 168 585 168 q 478 175 510 168 q 368 208 446 182 q 229 233 290 233 q 153 217 189 233 q 91 186 117 201 q 55 164 65 171 q 21 139 44 157 m 21 304 l 21 411 l 81 446 l 151 475 q 243 490 194 490 q 403 458 301 490 q 542 425 504 425 q 615 440 582 425 q 676 472 647 454 q 742 517 704 489 l 742 410 l 685 376 l 617 346 q 535 333 581 333 q 388 366 485 333 q 236 399 290 399 q 144 379 185 399 q 21 304 106 364 z "},"∆":{"ha":850,"x_min":29,"x_max":826,"o":"m 128 63 l 646 63 l 388 700 l 128 63 m 826 0 l 29 0 l 413 933 l 443 933 l 826 0 z "}," ":{"ha":694,"x_min":0,"x_max":0,"o":""},"÷":{"ha":763,"x_min":60,"x_max":703,"o":"m 382 219 q 438 197 415 219 q 460 140 460 175 q 436 85 460 107 q 382 61 415 61 q 325 85 349 61 q 303 140 303 111 q 328 197 303 174 q 382 219 353 219 m 703 281 l 60 281 l 60 375 l 703 375 l 703 281 m 382 593 q 438 569 415 593 q 460 514 460 544 q 436 458 460 481 q 382 435 415 435 q 325 457 349 435 q 303 514 303 482 q 328 570 303 547 q 382 593 353 593 z "},"◊":{"ha":686,"x_min":4,"x_max":682,"o":"m 343 956 l 82 401 l 343 -158 l 604 401 l 343 956 m 343 1121 l 682 401 l 343 -324 l 4 401 l 343 1121 z "},"":{"ha":1097,"x_min":76,"x_max":1021,"o":"m 567 825 l 565 835 l 565 850 q 628 1005 565 933 q 790 1094 692 1076 l 790 1078 l 792 1053 q 722 895 792 967 q 583 824 651 824 l 578 824 l 567 825 m 1021 274 q 947 131 982 190 q 864 24 911 72 q 743 -24 817 -24 q 652 -1 708 -24 q 571 21 596 21 q 481 -1 539 21 q 396 -24 422 -24 q 308 6 354 -24 l 265 43 l 199 126 q 126 269 157 186 q 86 401 96 351 q 76 500 76 450 q 162 742 76 649 q 381 836 247 836 q 424 832 403 836 q 461 823 446 828 q 497 810 476 818 q 538 795 517 801 q 569 789 560 789 q 656 813 597 789 q 756 836 714 836 q 890 808 833 836 q 999 725 949 783 q 898 628 933 683 q 863 503 863 572 q 904 368 863 429 q 1021 274 946 307 z "}}}
